<svg width="200" height="34" viewBox="0 0 200 34" fill="none" xmlns="http://www.w3.org/2000/svg">
<g clip-path="url(#clip0)">
<path d="M94.9834 32.7537H104.459V21.3601H116.397V14.2713H104.459V8.07146H117.648V0.579712H94.9834V32.7537Z" fill="white"/>
<path d="M131.851 0.579712H122.373V32.7537H131.851V0.579712Z" fill="white"/>
<path d="M162.283 16.3223C160.616 14.8509 158.053 13.8034 154.596 13.1795L151.354 12.5998C149.747 12.3 148.578 11.9534 147.846 11.56C147.114 11.1649 146.749 10.606 146.749 9.87552V9.85472C146.745 9.37436 146.903 8.90659 147.197 8.52638C147.545 8.09757 148.005 7.77356 148.526 7.59056C149.226 7.34153 149.965 7.2243 150.708 7.24483C151.493 7.23298 152.274 7.35338 153.019 7.60096C153.633 7.80029 154.192 8.14038 154.65 8.59397C155.057 9.00628 155.306 9.54666 155.357 10.1225L155.378 10.3434H164.095L164.074 9.85472C164.028 7.98388 163.437 6.16676 162.375 4.62454C161.332 3.14456 159.827 2.00425 157.858 1.2036C155.89 0.402956 153.469 0.000897171 150.596 -0.00256882C148.257 -0.0416018 145.935 0.400862 143.776 1.29718C141.907 2.06618 140.284 3.3311 139.085 4.95467C137.927 6.58873 137.328 8.5511 137.375 10.5514V10.5722C137.375 13.0694 138.228 15.1135 139.934 16.7044C141.64 18.2953 144.095 19.3732 147.299 19.9382L150.541 20.5179C152.328 20.8437 153.587 21.1998 154.317 21.5862C154.648 21.7339 154.929 21.9755 155.124 22.281C155.319 22.5865 155.42 22.9424 155.414 23.3045V23.3253C155.416 23.8548 155.216 24.3652 154.854 24.7524C154.423 25.2057 153.886 25.5437 153.29 25.735C152.499 25.9889 151.671 26.1093 150.84 26.0912C150.007 26.1007 149.177 25.9761 148.383 25.7221C147.702 25.513 147.071 25.1681 146.528 24.7082C146.06 24.3169 145.73 23.7854 145.589 23.1927L145.545 22.9926H136.825L136.849 23.4163C136.969 25.5271 137.599 27.3216 138.738 28.7998C139.878 30.2781 141.465 31.4045 143.499 32.1792C145.532 32.9521 147.943 33.3386 150.731 33.3386C153.695 33.3386 156.228 32.8958 158.33 32.0102C160.432 31.1247 162.038 29.8691 163.146 28.2436C164.256 26.6145 164.811 24.6926 164.811 22.4779V22.4571C164.794 19.8385 163.951 17.7936 162.283 16.3223Z" fill="white"/>
<path d="M190.525 0.579712V12.8207H179.168V0.579712H169.69V32.7537H179.168V20.3125H190.525V32.7537H200V0.579712H190.525Z" fill="white"/>
<path d="M63.9016 8.07146H72.3972V32.7537H81.8752V8.07146H90.3681V0.579712H63.9016V8.07146Z" fill="white"/>
<path d="M8.71705 26.4892C11.2626 22.265 14.6148 18.5802 18.5834 15.6441C15.9712 13.1879 13.7051 10.3896 11.8469 7.32574C13.3688 8.07959 14.9897 8.82825 16.7044 9.55351C19.2687 10.6401 21.7288 11.5395 24.0455 12.2882C26.1101 11.2495 28.2667 10.4037 30.4876 9.76146C30.1756 8.62945 29.7016 7.54821 29.0803 6.55108C27.8008 4.51197 25.9892 2.85856 23.8397 1.76801C21.5968 0.59304 18.9777 0.0055542 15.9826 0.0055542C12.7042 0.0055542 9.86892 0.656297 7.47661 1.95778C5.0998 3.24325 3.17045 5.21854 1.94406 7.62208C0.648015 10.0968 0 13.1027 0 16.6397V16.6683C0 20.2054 0.644546 23.2156 1.93365 25.699C3.15208 28.1091 5.07728 30.0921 7.45315 31.3841C9.84546 32.6908 12.6886 33.345 15.9826 33.3467C18.9447 33.3467 21.5507 32.7592 23.8006 31.5842C25.9603 30.4917 27.787 28.8419 29.0908 26.8064C30.3714 24.7792 31.0358 22.4253 31.0036 20.0295L31.0374 18.7999C23.3006 20.4087 15.8003 22.9926 8.71705 26.4892Z" fill="white"/>
<path d="M54.5722 0.582275H42.6811L39.9708 8.86947C45.6574 9.56184 50.8453 12.4503 54.4211 16.9149C53.0573 16.8543 51.6874 16.8248 50.3114 16.8265C45.8796 16.8257 41.4533 17.1358 37.0651 17.7545L32.1528 32.7666H42.1208L43.7964 26.3667H53.4543L55.1299 32.7666H65.1005L54.5722 0.582275Z" fill="white"/>
</g>
<defs>
<clipPath id="clip0">
<rect width="200" height="33.3333" fill="white"/>
</clipPath>
</defs>
</svg>
